<svg xmlns="http://www.w3.org/2000/svg" viewBox="0 0 1024 1024" style="color: #0969da">
    <path
        d="M512 85.333333c235.637333 0 426.666667 191.029333 426.666667 426.666667S747.637333 938.666667 512 938.666667 85.333333 747.637333 85.333333 512 276.362667 85.333333 512 85.333333z m149.162667 217.749334H362.837333c-32.821333 0-59.733333 26.912-59.733333 59.733333v298.666667c0 32.821333 26.912 59.733333 59.733333 59.733333h298.325334c32.821333 0 59.733333-26.912 59.733333-59.733333V362.816c0-32.821333-26.912-59.733333-59.733333-59.733333z m-10.965334 157.781333l-167.253333 167.253333a42.666667 42.666667 0 0 1-60.330667 0l-59.733333-59.733333a42.666667 42.666667 0 0 1 60.330667-60.330667l29.568 29.568 137.088-137.088a42.666667 42.666667 0 0 1 60.330666 60.330667z"
        fill="currentColor" />
</svg>