<svg xmlns="http://www.w3.org/2000/svg" viewBox="0 0 512 512">
    <path fill="#0969da" d="M71.357 460.819L30.272 0h451.456l-41.129 460.746L255.724 512z" />
    <path fill="#0969da" d="M405.388 431.408l35.148-393.73H256v435.146z" />
    <path fill="#ffffff"
        d="M124.46 208.59l5.065 56.517H256V208.59zM119.419 150.715l5.21 56.517H256v-56.517zM256 355.372l-.248.066-62.944-16.996-4.023-45.076h-56.736l7.919 88.741 115.772 32.14.26-.073z" />
    <path fill="#ffffff"
        d="M256 266.666h77.896l-7.342 82.187-70.554 19.057v65.848l129.667-35.973.952-10.682 14.857-166.5 1.544-16.938 11.404-127.849H256v56.517h129.176l-5.21 56.517H256z" />
</svg>