<svg xmlns="http://www.w3.org/2000/svg" viewBox="0 0 1024 1024" style="color: #339933">
    <path
        d="M512 64.6L861.7 270v451.6L512 927.4 162.3 721.6V270L512 64.6m0-64.6L128 217.8v556.4L512 992l384-217.8V217.8L512 0z"
        fill="currentColor" />
    <path
        d="M619.1 750.2c-1.3 0-2.6-0.3-3.8-1l-72.5-42.9c-1.8-1-0.9-1.4-0.3-1.6 10.1-3.5 12.1-4.3 22.9-10.4 1.1-0.6 2.6-0.4 3.7 0.3l55.7 33.1c1.4 0.8 3.3 0.8 4.6 0l217.4-125.5c1.4-0.8 2.3-2.4 2.3-4.1V350.2c0-1.7-0.9-3.3-2.3-4.1L629.3 220.5c-1.4-0.8-3.2-0.8-4.6 0L407.4 346.1c-1.4 0.8-2.3 2.4-2.3 4.1v251.1c0 1.7 0.9 3.2 2.3 4l59.5 34.4c22.5 11.2 36.2-2 36.2-15.3V365.3c0-2.4 1.9-4.3 4.3-4.3h27.6c2.4 0 4.3 1.9 4.3 4.3v259.1c0 30-16.3 47.2-44.8 47.2-8.7 0-15.6 0-34.8-9.5l-57-32.8c-14.1-8.1-22.8-23.3-22.8-39.6V350.2c0-16.3 8.7-31.5 22.8-39.6l217.4-125.6c13.7-7.8 32-7.8 45.7 0l217.4 125.6c14.1 8.1 22.8 23.3 22.8 39.6v251.1c0 16.3-8.7 31.5-22.8 39.6L666.7 766.4c-7 4-14.9 6.1-22.8 6.1h0.1z"
        fill="currentColor" />
    <path
        d="M669.8 599.4c-95.1 0-115-43.7-115-80.3 0-3.5 2.8-6.3 6.3-6.3h28.1c3.1 0 5.7 2.3 6.2 5.3 4.2 28.5 16.9 42.8 74.3 42.8 45.7 0 65.2-10.3 65.2-34.6 0-14-5.5-24.3-76.6-31.3-59.4-5.8-96.1-19-96.1-66.6 0-43.9 37-70 99-70 69.6 0 104.1 24.2 108.4 76.1 0.2 1.8-0.5 3.5-1.7 4.8-1.2 1.3-2.9 2-4.7 2h-28.3c-2.9 0-5.4-2.1-6-4.9-6.7-29.7-22.9-39.2-67.7-39.2-49.8 0-55.6 17.4-55.6 30.4 0 15.7 6.8 20.3 74.2 29.2 66.7 8.8 98.4 21.2 98.4 68.2 0 47.4-39.5 74.4-108.4 74.4z"
        fill="currentColor" />
</svg>