<svg xmlns="http://www.w3.org/2000/svg" viewBox="0 0 1200 1200">
    <path fill="#8dd6f9" d="M600 0l530.3 300v600L600 1200 69.7 900V300z" />
    <path fill="#8dd6f9"
        d="M178.1 638.3V421.5l386.5-216.9v157.3L304.1 514.2l.1 154.7-126.1-30.6zm20.7 14.9l114.1 27.6v138.1l143.2-81.9v-168l132.9-76.1v470.6L302 873.3V673.6l-103.2-20.4zm462.8-509.4l386.5 216.9v216.8l-126.1 30.6.1-154.7-260.5-152.3V143.8z" />
    <path fill="#8dd6f9"
        d="M997.9 653.2l-103.2 20.4v199.7l-286.8 89.2V491.9l132.9 76.1v168l143.2 81.9V679.8l114.1-27.6-.2 1z" />
</svg>