<svg xmlns="http://www.w3.org/2000/svg" viewBox="0 0 1024 1024">
    <path
        d="M692.3 347.5c11.1 0 22.1.8 33 1.9-29.7-138.3-177.9-241.2-346.8-241.2-189 0-342.8 128.9-342.8 288 0 93 50.8 169.3 135.7 228.7l-33.9 102.1 118.6-59.4c42.4 8.4 76.4 17 117.1 17 10.5 0 20.9-.5 31.2-1.3-6.5-22.3-10.3-45.7-10.3-70 0-146.1 125.5-264.8 298.2-264.8zM500.9 248.4c25.5 0 46.2 20.7 46.2 46.2 0 25.5-20.7 46.2-46.2 46.2-25.5 0-51.1-20.7-51.1-46.2 0-25.5 25.6-46.2 51.1-46.2zm-237.3 92.4c-25.5 0-51.1-20.7-51.1-46.2 0-25.5 25.6-46.2 51.1-46.2s46.2 20.7 46.2 46.2c0 25.5-20.7 46.2-46.2 46.2z"
        fill="#2ed15c" />
    <path
        d="M1024 629.3c0-134.2-135.7-243.5-288-243.5-161.4 0-288 109.3-288 243.5s126.6 243.5 288 243.5c33.7 0 67.9-8.5 101.7-17l93 51.1-25.5-84.7c68.3-51.1 118.8-118.6 118.8-193.4zm-381.5-42.4c-16.9 0-33.9-16.9-33.9-33.9 0-16.9 16.9-33.9 33.9-33.9 25.5 0 42.4 16.9 42.4 33.9 0 17-16.9 33.9-42.4 33.9zm186.9 0c-16.9 0-33.9-16.9-33.9-33.9 0-16.9 16.9-33.9 33.9-33.9 25.5 0 42.4 16.9 42.4 33.9 0 17-16.9 33.9-42.4 33.9z"
        fill="#d1d1d1" />
</svg>